#!OML:ASF C:\ViconDB\ViconDB\414\Spring2016\041811\Spring2016.ASF
:FULLY-SPECIFIED
:DEGREES
155
root 6.12835 17.3298 -16.3102 -179.825 -9.63685 -184.082
lowerback 8.511 -3.1372 -8.27672
upperback 0.732559 -5.22449 -2.06893
thorax -3.47258 -2.56023 3.04375
lowerneck -16.0679 -6.43019 -13.4554
upperneck 17.6728 -8.93794 19.2057
head 9.82331 -2.87066 7.95101
rclavicle -3.21037e-014 1.11319e-014
rhumerus -64.4993 -13.2642 -84.1142
rradius 87.0834
rwrist 15.2297
rhand -31.2096 -10.9024
rfingers 7.12502
rthumb -4.48557 -40.8349
lclavicle -3.21037e-014 1.11319e-014
lhumerus -36.8741 -21.5756 101.548
lradius 95.7699
lwrist -20.7447
lhand -36.4088 6.83001
lfingers 7.12502
lthumb -9.50423 36.5957
rfemur -36.9097 -27.6637 7.44365
rtibia 111.831
rfoot -153.596 -8.41588
rtoes -15.8442
lfemur -12.0387 -0.9156 -26.8218
ltibia 45.4974
lfoot -27.302 -7.38877
ltoes -10.0665
156
root 6.12628 17.3413 -16.811 -179.592 -9.76259 -184.107
lowerback 8.40902 -3.38074 -8.50555
upperback 0.54066 -5.54491 -1.87662
thorax -3.54072 -2.6987 3.3967
lowerneck -16.0316 -6.3472 -13.9158
upperneck 17.4965 -8.75186 19.4697
head 9.75701 -2.80513 8.15716
rclavicle 8.59744e-014 9.06458e-014
rhumerus -66.6528 -13.0145 -83.0002
rradius 86.7653
rwrist 16.592
rhand -29.8161 -9.93443
rfingers 7.12502
rthumb -3.13981 -39.8911
lclavicle 8.59744e-014 9.06458e-014
lhumerus -34.781 -22.7868 101.673
lradius 98.1547
lwrist -21.7721
lhand -36.4934 6.11853
lfingers 7.12502
lthumb -9.58592 35.8805
rfemur -39.9649 -26.493 9.50033
rtibia 110.268
rfoot -154.544 -8.65799
rtoes -16.1022
lfemur -9.73721 -1.32827 -26.5867
ltibia 44.4613
lfoot -27.7943 -7.35924
ltoes -11.2111
157
root 6.13933 17.3795 -17.3112 -179.54 -9.92265 -183.044
lowerback 8.51999 -3.73508 -7.84782
upperback 0.286867 -5.9065 -1.32224
thorax -3.82851 -2.84538 3.66359
lowerneck -16.098 -6.10714 -13.9967
upperneck 17.3692 -8.35205 19.267
head 9.6368 -2.66145 8.14233
rclavicle -5.08889e-014 -3.89618e-014
rhumerus -68.7497 -11.9517 -82.5854
rradius 86.9394
rwrist 16.7008
rhand -29.3367 -9.39848
rfingers 7.12502
rthumb -2.67689 -39.3614
lclavicle -5.08889e-014 -3.89618e-014
lhumerus -32.9662 -24.0047 101.598
lradius 100.754
lwrist -22.9869
lhand -36.8448 6.45408
lfingers 7.12502
lthumb -9.92491 36.2001
rfemur -42.5888 -24.5965 13.2019
rtibia 107.757
rfoot -156.563 -9.34197
rtoes -15.0651
lfemur -7.45048 -2.14329 -25.1656
ltibia 43.2464
lfoot -27.831 -7.1376
ltoes -12.6737
158
root 6.14165 17.4344 -17.8315 -179.337 -9.8113 -181.575
lowerback 8.1699 -4.13229 -6.64584
upperback -0.0619361 -6.22564 -0.67742
thorax -4.00928 -2.9845 3.68733
lowerneck -16.1426 -5.81628 -13.9399
upperneck 17.4302 -7.8978 18.8617
head 9.55009 -2.49859 8.04077
rclavicle -3.54582e-014 -7.55382e-015
rhumerus -70.907 -10.7275 -82.4981
rradius 87.4673
rwrist 16.8124
rhand -28.4189 -9.18876
rfingers 7.12502
rthumb -1.79051 -39.161
lclavicle -3.54582e-014 -7.55382e-015
lhumerus -31.6464 -25.0341 101.456
lradius 103.771
lwrist -22.9498
lhand -36.9674 5.9755
lfingers 7.12502
lthumb -10.0432 35.7159
rfemur -44.6921 -22.2014 17.0287
rtibia 104.449
rfoot -158.341 -9.80488
rtoes -13.5487
lfemur -5.26461 -3.07094 -23.3865
ltibia 41.9033
lfoot -27.6455 -6.81225
ltoes -14.7285
159
root 6.13847 17.4872 -18.3583 -178.914 -9.408 -181.332
lowerback 7.78936 -4.46088 -6.59379
upperback -0.606463 -6.61989 -0.420328
thorax -4.29915 -3.14584 3.95315
lowerneck -15.796 -5.28951 -13.7238
upperneck 17.5224 -7.18428 18.5494
head 9.35164 -2.19964 7.98551
rclavicle -4.3186e-014 1.43125e-014
rhumerus -73.2575 -9.04372 -83.1115
rradius 88.2161
rwrist 15.4082
rhand -28.1761 -9.12757
rfingers 7.12502
rthumb -1.55598 -39.1016
lclavicle -4.3186e-014 1.43125e-014
lhumerus -31.1066 -25.9538 101.028
lradius 107.047
lwrist -22.7325
lhand -37.3239 6.17701
lfingers 7.12502
lthumb -10.3871 35.9004
rfemur -46.523 -19.9287 18.8334
rtibia 100.852
rfoot -159.816 -9.65896
rtoes -12.8397
lfemur -2.99087 -3.96987 -23.137
ltibia 40.392
lfoot -26.9509 -5.92968
ltoes -16.6765
160
root 6.14445 17.5593 -18.9096 -178.613 -9.10559 -181.041
lowerback 7.32151 -4.69236 -6.25314
upperback -1.02162 -6.86024 -0.256673
thorax -4.46317 -3.25131 3.93434
lowerneck -15.8237 -5.04166 -13.5748
upperneck 17.8762 -6.83623 18.1886
head 9.38807 -2.05758 7.88573
rclavicle -3.82536e-014 7.95139e-016
rhumerus -75.4482 -7.87617 -83.7333
rradius 89.0162
rwrist 13.6715
rhand -27.8353 -9.10494
rfingers 7.12502
rthumb -1.22681 -39.0812
lclavicle -3.82536e-014 7.95139e-016
lhumerus -30.8038 -27.4578 100.612
lradius 110.313
lwrist -22.154
lhand -37.5714 6.46448
lfingers 7.12502
lthumb -10.6258 36.1758
rfemur -47.3146 -17.8194 20.3722
rtibia 96.3988
rfoot -161.353 -9.24552
rtoes -11.8066
lfemur -0.479878 -5.13232 -22.8919
ltibia 38.6618
lfoot -25.6545 -4.95576
ltoes -18.106
161
root 6.15297 17.6381 -19.4692 -178.374 -8.64575 -180.861
lowerback 6.84631 -4.90192 -6.16173
upperback -1.44122 -7.09994 -0.0656621
thorax -4.59667 -3.35416 4.07748
lowerneck -15.7902 -4.72933 -13.4763
upperneck 18.3039 -6.40619 17.9267
head 9.43154 -1.8686 7.84919
rclavicle -5.29699e-014 6.75868e-015
rhumerus -77.5933 -6.65077 -84.531
rradius 89.4941
rwrist 12.8808
rhand -28.6774 -8.38317
rfingers 7.12502
rthumb -2.0401 -38.3532
lclavicle -5.29699e-014 6.75868e-015
lhumerus -30.9019 -28.8015 100.151
lradius 113.501
lwrist -21.2917
lhand -38.0251 6.36962
lfingers 7.12502
lthumb -11.0634 36.058
rfemur -47.504 -15.7064 21.485
rtibia 91.358
rfoot -162.591 -8.47623
rtoes -11.1635
lfemur 2.19003 -6.25953 -22.8768
ltibia 36.7542
lfoot -23.8405 -3.98233
ltoes -20.5916
